<svg width="600" xmlns="http://www.w3.org/2000/svg" height="600" fill="none"><rect rx="0" ry="0" transform="matrix(1.000000, 0.000000, 0.000000, 1.000000, 0.000000, 0.000000)" width="600" height="600" class="fills"/><path d="M300.000,12.000C458.952,12.000,588.000,141.048,588.000,300.000C588.000,458.952,458.952,588.000,300.000,588.000C141.048,588.000,12.000,458.952,12.000,300.000C12.000,141.048,141.048,12.000,300.000,12.000Z" style="fill: rgb(168, 163, 235); fill-opacity: 1;" class="fills"/><g class="strokes"><g class="outer-stroke-shape"><defs><mask id="b" x="-16.971" y="-16.971" width="633.941" height="633.941" maskUnits="userSpaceOnUse"><use href="#a" style="fill: none; stroke: white; stroke-width: 24;"/><use href="#a" style="fill: black; stroke: none;"/></mask><path d="M300.000,12.000C458.952,12.000,588.000,141.048,588.000,300.000C588.000,458.952,458.952,588.000,300.000,588.000C141.048,588.000,12.000,458.952,12.000,300.000C12.000,141.048,141.048,12.000,300.000,12.000Z" id="a"/></defs><use href="#a" mask="url(#b)" style="fill: none; stroke-width: 24; stroke: rgb(151, 147, 211); stroke-opacity: 1;"/><use href="#a" style="fill: none; stroke-width: 12; stroke: none; stroke-opacity: 1;"/></g></g><path d="M226.000,203.242C327.659,77.379,445.810,220.263,443.000,313.000C441.000,379.000,375.376,438.000,290.000,438.000C219.000,438.000,187.000,394.000,182.000,325.242C179.118,285.608,205.000,229.242,226.000,203.242Z" style="fill: rgb(182, 201, 255); fill-opacity: 1;" class="fills"/><path d="M330.048,227.677C362.343,187.829,399.877,233.066,398.984,262.426C398.349,283.321,377.502,302.000,350.380,302.000C327.824,302.000,317.659,288.070,316.070,266.301C315.155,253.754,323.377,235.908,330.048,227.677Z" style="fill: rgb(220, 229, 255); fill-opacity: 1;" class="fills"/><path d="M313.000,135.000C355.000,126.000,410.000,143.000,444.000,182.000C478.076,221.087,503.204,307.709,474.000,339.000C460.000,354.000,426.758,350.523,432.000,323.000C452.000,218.000,364.889,172.326,315.000,169.000C300.000,168.000,297.789,138.260,313.000,135.000Z" style="fill: rgb(151, 147, 211); fill-opacity: 1;" class="fills"/><path d="M191.000,276.000C200.000,291.000,183.000,302.000,186.000,330.000C190.506,372.056,212.000,374.000,199.000,398.000C187.922,418.452,155.000,402.000,147.000,331.000C139.607,265.385,182.625,262.041,191.000,276.000Z" style="fill: rgb(151, 147, 211); fill-opacity: 1;" class="fills"/></svg>