<svg width="416" xmlns="http://www.w3.org/2000/svg" height="416" fill="none"><rect rx="0" ry="0" transform="matrix(1.000000, 0.000000, 0.000000, 1.000000, 0.000000, 0.000000)" width="416" height="416" class="fills"/><path d="M59.375,148.677C65.039,134.516,72.669,121.351,81.927,109.520C79.410,102.840,78.000,95.583,78.000,88.000C78.000,54.885,104.885,28.000,138.000,28.000C156.561,28.000,173.165,36.446,184.174,49.702C191.962,48.602,199.911,48.000,208.000,48.000C216.065,48.000,223.991,48.598,231.737,49.752C242.776,36.476,259.406,28.000,278.000,28.000C311.115,28.000,338.000,54.885,338.000,88.000C338.000,95.567,336.596,102.808,334.035,109.478C343.269,121.256,350.906,134.411,356.578,148.561C385.634,152.775,408.000,177.796,408.000,208.000C408.000,238.171,385.683,263.171,356.670,267.377C350.959,281.488,343.326,294.657,334.065,306.491C336.590,313.160,338.000,320.417,338.000,328.000C338.000,361.115,311.115,388.000,278.000,388.000C259.439,388.000,242.835,379.554,231.826,366.298C224.052,367.397,216.096,368.000,208.000,368.000C199.916,368.000,191.972,367.399,184.209,366.240C173.224,379.524,156.594,388.000,138.000,388.000C104.885,388.000,78.000,361.115,78.000,328.000C78.000,320.433,79.404,313.192,81.965,306.522C72.726,294.735,65.092,281.585,59.422,267.439C30.366,263.225,8.000,238.204,8.000,208.000C8.000,177.829,30.317,152.829,59.375,148.677Z" style="fill: rgb(244, 177, 239); fill-opacity: 1;" class="fills"/><g class="strokes"><g class="outer-stroke-shape"><defs><mask id="b" x="-3.314" y="16.686" width="422.627" height="382.627" maskUnits="userSpaceOnUse"><use href="#a" style="fill: none; stroke: white; stroke-width: 16;"/><use href="#a" style="fill: black; stroke: none;"/></mask><path d="M59.375,148.677C65.039,134.516,72.669,121.351,81.927,109.520C79.410,102.840,78.000,95.583,78.000,88.000C78.000,54.885,104.885,28.000,138.000,28.000C156.561,28.000,173.165,36.446,184.174,49.702C191.962,48.602,199.911,48.000,208.000,48.000C216.065,48.000,223.991,48.598,231.737,49.752C242.776,36.476,259.406,28.000,278.000,28.000C311.115,28.000,338.000,54.885,338.000,88.000C338.000,95.567,336.596,102.808,334.035,109.478C343.269,121.256,350.906,134.411,356.578,148.561C385.634,152.775,408.000,177.796,408.000,208.000C408.000,238.171,385.683,263.171,356.670,267.377C350.959,281.488,343.326,294.657,334.065,306.491C336.590,313.160,338.000,320.417,338.000,328.000C338.000,361.115,311.115,388.000,278.000,388.000C259.439,388.000,242.835,379.554,231.826,366.298C224.052,367.397,216.096,368.000,208.000,368.000C199.916,368.000,191.972,367.399,184.209,366.240C173.224,379.524,156.594,388.000,138.000,388.000C104.885,388.000,78.000,361.115,78.000,328.000C78.000,320.433,79.404,313.192,81.965,306.522C72.726,294.735,65.092,281.585,59.422,267.439C30.366,263.225,8.000,238.204,8.000,208.000C8.000,177.829,30.317,152.829,59.375,148.677Z" id="a"/></defs><use href="#a" mask="url(#b)" style="fill: none; stroke-width: 16; stroke: rgb(221, 161, 211); stroke-opacity: 1;"/><use href="#a" style="fill: none; stroke-width: 8; stroke: none; stroke-opacity: 1;"/></g></g><ellipse cx="257" cy="207" rx="56" ry="56" transform="matrix(1.000000, 0.000000, 0.000000, 1.000000, 0.000000, 0.000000)" style="fill: rgb(221, 161, 211); fill-opacity: 1;" class="fills"/><ellipse cx="157" cy="207" rx="56" ry="56" transform="matrix(1.000000, 0.000000, 0.000000, 1.000000, 0.000000, 0.000000)" style="fill: rgb(221, 161, 211); fill-opacity: 1;" class="fills"/><path d="M245.000,158.000C272.596,158.000,295.000,180.404,295.000,208.000C295.000,235.596,272.596,258.000,245.000,258.000C217.404,258.000,206.000,223.000,206.000,205.000C206.000,184.000,217.404,158.000,245.000,158.000Z" style="fill: rgb(255, 189, 242); fill-opacity: 1;" class="fills"/><path d="M260.000,171.000C270.265,172.312,282.000,184.000,282.000,193.500C282.000,210.000,272.434,215.000,260.652,215.000C248.869,215.000,241.000,200.740,241.000,193.000C241.000,183.000,244.348,169.000,260.000,171.000Z" style="fill: rgb(255, 224, 248); fill-opacity: 1;" class="fills"/><path d="M169.000,158.000C196.596,158.000,208.000,184.000,208.000,205.000C208.000,224.000,196.596,258.000,169.000,258.000C141.404,258.000,119.000,235.596,119.000,208.000C119.000,180.404,141.404,158.000,169.000,158.000ZM208.000,205.000" style="fill: rgb(255, 189, 242); fill-opacity: 1;" class="fills"/><path d="M173.000,168.193C183.265,169.504,194.000,181.000,194.000,193.000C194.000,208.000,190.000,216.000,176.000,216.000C163.000,216.000,154.000,202.000,154.000,190.193C154.000,180.193,157.348,166.193,173.000,168.193Z" style="fill: rgb(255, 224, 248); fill-opacity: 1;" class="fills"/></svg>