<svg width="788" xmlns="http://www.w3.org/2000/svg" height="788" fill="none"><rect rx="0" ry="0" transform="matrix(1.000000, 0.000000, 0.000000, 1.000000, 0.000000, 0.000000)" width="788" height="788" class="fills"/><path d="M497.856,110.047C532.590,122.320,564.399,140.813,591.939,164.184C605.736,157.054,621.398,153.000,638.000,153.000C693.192,153.000,738.000,197.808,738.000,253.000C738.000,288.002,719.978,318.829,692.714,336.698C696.181,354.903,698.000,373.741,698.000,393.000C698.000,412.217,696.189,431.014,692.729,449.230C719.972,467.162,738.000,497.992,738.000,533.000C738.000,588.192,693.192,633.000,638.000,633.000C621.415,633.000,605.767,628.954,591.992,621.795C564.462,645.141,532.687,663.627,497.989,675.906C496.420,729.755,452.220,773.000,398.000,773.000C343.807,773.000,299.625,729.799,298.044,675.986M298.144,675.953C263.402,663.677,231.587,645.179,204.042,621.801C190.264,628.946,174.602,633.000,158.000,633.000C102.808,633.000,58.000,588.192,58.000,533.000C58.000,497.998,76.022,467.171,103.286,449.302C99.820,431.107,98.000,412.265,98.000,393.000C98.000,373.787,99.810,354.994,103.269,336.781C76.028,318.838,58.000,288.008,58.000,253.000C58.000,197.808,102.808,153.000,158.000,153.000C174.585,153.000,190.233,157.046,204.008,164.205C231.487,140.889,263.285,122.382,298.011,110.094C299.580,56.245,343.780,13.000,398.000,13.000C452.193,13.000,496.375,56.201,497.956,110.014" style="fill: rgb(255, 148, 184); fill-opacity: 1;" class="fills"/><g class="strokes"><g class="outer-stroke-shape"><defs><mask id="b" x="38.201" y="-6.799" width="719.598" height="799.598" maskUnits="userSpaceOnUse"><use href="#a" style="fill: none; stroke: white; stroke-width: 28;"/><use href="#a" style="fill: black; stroke: none;"/></mask><path d="M497.856,110.047C532.590,122.320,564.399,140.813,591.939,164.184C605.736,157.054,621.398,153.000,638.000,153.000C693.192,153.000,738.000,197.808,738.000,253.000C738.000,288.002,719.978,318.829,692.714,336.698C696.181,354.903,698.000,373.741,698.000,393.000C698.000,412.217,696.189,431.014,692.729,449.230C719.972,467.162,738.000,497.992,738.000,533.000C738.000,588.192,693.192,633.000,638.000,633.000C621.415,633.000,605.767,628.954,591.992,621.795C564.462,645.141,532.687,663.627,497.989,675.906C496.420,729.755,452.220,773.000,398.000,773.000C343.807,773.000,299.625,729.799,298.044,675.986M298.144,675.953C263.402,663.677,231.587,645.179,204.042,621.801C190.264,628.946,174.602,633.000,158.000,633.000C102.808,633.000,58.000,588.192,58.000,533.000C58.000,497.998,76.022,467.171,103.286,449.302C99.820,431.107,98.000,412.265,98.000,393.000C98.000,373.787,99.810,354.994,103.269,336.781C76.028,318.838,58.000,288.008,58.000,253.000C58.000,197.808,102.808,153.000,158.000,153.000C174.585,153.000,190.233,157.046,204.008,164.205C231.487,140.889,263.285,122.382,298.011,110.094C299.580,56.245,343.780,13.000,398.000,13.000C452.193,13.000,496.375,56.201,497.956,110.014" id="a"/></defs><use href="#a" mask="url(#b)" style="fill: none; stroke-width: 28; stroke: rgb(229, 133, 165); stroke-opacity: 1;"/><use href="#a" style="fill: none; stroke-width: 14; stroke: none; stroke-opacity: 1;"/></g></g><ellipse cx="319.995" cy="286.995" rx="112" ry="112" transform="matrix(-0.500000, -0.866025, 0.866025, -0.500000, 231.447441, 707.615933)" style="fill: rgb(229, 133, 165); fill-opacity: 1;" class="fills"/><path d="M246.124,355.047C217.928,318.210,219.879,253.575,282.727,218.445C345.581,183.311,403.392,213.442,419.329,255.047C445.919,324.459,432.177,388.000,401.000,406.000C364.627,427.000,290.954,413.616,246.124,355.047Z" style="fill: rgb(255, 189, 242); fill-opacity: 1;" class="fills"/><path d="M326.950,229.024C343.834,214.236,369.503,222.527,381.011,231.862C396.426,244.367,402.608,260.127,394.099,271.797C383.920,285.758,361.928,284.368,343.630,273.039C330.231,264.743,309.212,244.558,326.950,229.024Z" style="fill: rgb(255, 224, 248); fill-opacity: 1;" class="fills"/><ellipse cx="532" cy="375" rx="112" ry="112" transform="matrix(1.000000, 0.000000, 0.000000, 1.000000, 0.000000, 0.000000)" style="fill: rgb(229, 133, 165); fill-opacity: 1;" class="fills"/><path d="M509.048,274.684C555.486,268.611,611.009,303.031,610.000,375.898C608.990,448.772,553.467,484.196,509.048,477.111C434.941,465.291,398.000,422.456,398.000,386.019C398.000,343.509,435.214,284.339,509.048,274.684Z" style="fill: rgb(255, 189, 242); fill-opacity: 1;" class="fills"/><path d="M548.585,298.279C565.109,300.179,584.000,317.106,584.000,330.864C584.000,354.759,568.601,362.000,549.634,362.000C530.668,362.000,518.000,341.349,518.000,330.140C518.000,315.657,523.390,295.383,548.585,298.279Z" style="fill: rgb(255, 224, 248); fill-opacity: 1;" class="fills"/><ellipse cx="346.995" cy="514.253" rx="112" ry="112" transform="matrix(-0.500000, 0.866025, -0.866025, -0.500000, 965.848582, 470.873412)" style="fill: rgb(229, 133, 165); fill-opacity: 1;" class="fills"/><path d="M442.865,544.201C425.061,587.038,368.111,617.666,306.263,580.803C244.409,543.937,241.598,478.806,269.660,444.201C316.478,386.467,376.823,372.000,408.000,390.000C444.373,411.000,471.172,476.092,442.865,544.201Z" style="fill: rgb(255, 189, 242); fill-opacity: 1;" class="fills"/><path d="M409.757,429.049C410.979,444.277,407.422,459.364,395.697,469.282C380.599,482.053,352.047,467.667,344.283,451.629C335.323,433.117,349.162,412.536,362.288,403.642C386.731,387.080,406.977,394.388,409.757,429.049ZM362.288,403.642" style="fill: rgb(255, 224, 248); fill-opacity: 1;" class="fills"/></svg>