<svg width="416" xmlns="http://www.w3.org/2000/svg" height="416" fill="none"><rect rx="0" ry="0" transform="matrix(1.000000, 0.000000, 0.000000, 1.000000, 0.000000, 0.000000)" width="416" height="416" class="fills"/><path d="M267.323,59.375C281.484,65.039,294.649,72.669,306.480,81.927C313.160,79.410,320.417,78.000,328.000,78.000C361.115,78.000,388.000,104.885,388.000,138.000C388.000,156.561,379.554,173.165,366.298,184.174C367.398,191.962,368.000,199.911,368.000,208.000C368.000,216.065,367.402,223.991,366.248,231.737C379.524,242.776,388.000,259.406,388.000,278.000C388.000,311.115,361.115,338.000,328.000,338.000C320.433,338.000,313.192,336.596,306.522,334.035C294.744,343.269,281.589,350.906,267.439,356.578C263.225,385.634,238.204,408.000,208.000,408.000C177.829,408.000,152.829,385.683,148.623,356.670C134.512,350.959,121.343,343.326,109.509,334.065C102.840,336.590,95.583,338.000,88.000,338.000C54.885,338.000,28.000,311.115,28.000,278.000C28.000,259.439,36.446,242.835,49.702,231.826C48.603,224.052,48.000,216.096,48.000,208.000C48.000,199.916,48.601,191.972,49.760,184.209C36.476,173.224,28.000,156.594,28.000,138.000C28.000,104.885,54.885,78.000,88.000,78.000C95.567,78.000,102.808,79.404,109.478,81.965C121.265,72.726,134.415,65.092,148.561,59.422C152.775,30.366,177.796,8.000,208.000,8.000C238.171,8.000,263.171,30.317,267.323,59.375Z" style="fill: rgb(244, 177, 239); fill-opacity: 1;" class="fills"/><g class="strokes"><g class="outer-stroke-shape"><defs><mask id="b" x="16.686" y="-3.314" width="382.627" height="422.627" maskUnits="userSpaceOnUse"><use href="#a" style="fill: none; stroke: white; stroke-width: 16;"/><use href="#a" style="fill: black; stroke: none;"/></mask><path d="M267.323,59.375C281.484,65.039,294.649,72.669,306.480,81.927C313.160,79.410,320.417,78.000,328.000,78.000C361.115,78.000,388.000,104.885,388.000,138.000C388.000,156.561,379.554,173.165,366.298,184.174C367.398,191.962,368.000,199.911,368.000,208.000C368.000,216.065,367.402,223.991,366.248,231.737C379.524,242.776,388.000,259.406,388.000,278.000C388.000,311.115,361.115,338.000,328.000,338.000C320.433,338.000,313.192,336.596,306.522,334.035C294.744,343.269,281.589,350.906,267.439,356.578C263.225,385.634,238.204,408.000,208.000,408.000C177.829,408.000,152.829,385.683,148.623,356.670C134.512,350.959,121.343,343.326,109.509,334.065C102.840,336.590,95.583,338.000,88.000,338.000C54.885,338.000,28.000,311.115,28.000,278.000C28.000,259.439,36.446,242.835,49.702,231.826C48.603,224.052,48.000,216.096,48.000,208.000C48.000,199.916,48.601,191.972,49.760,184.209C36.476,173.224,28.000,156.594,28.000,138.000C28.000,104.885,54.885,78.000,88.000,78.000C95.567,78.000,102.808,79.404,109.478,81.965C121.265,72.726,134.415,65.092,148.561,59.422C152.775,30.366,177.796,8.000,208.000,8.000C238.171,8.000,263.171,30.317,267.323,59.375Z" id="a"/></defs><use href="#a" mask="url(#b)" style="fill: none; stroke-width: 16; stroke: rgb(221, 161, 211); stroke-opacity: 1;"/><use href="#a" style="fill: none; stroke-width: 8; stroke: none; stroke-opacity: 1;"/></g></g><ellipse cx="257" cy="207" rx="56" ry="56" transform="matrix(1.000000, 0.000000, 0.000000, 1.000000, 0.000000, 0.000000)" style="fill: rgb(221, 161, 211); fill-opacity: 1;" class="fills"/><ellipse cx="157" cy="207" rx="56" ry="56" transform="matrix(1.000000, 0.000000, 0.000000, 1.000000, 0.000000, 0.000000)" style="fill: rgb(221, 161, 211); fill-opacity: 1;" class="fills"/><path d="M245.000,158.000C272.596,158.000,295.000,180.404,295.000,208.000C295.000,235.596,272.596,258.000,245.000,258.000C217.404,258.000,206.000,223.000,206.000,205.000C206.000,184.000,217.404,158.000,245.000,158.000Z" style="fill: rgb(255, 189, 242); fill-opacity: 1;" class="fills"/><path d="M260.000,171.000C270.265,172.312,282.000,184.000,282.000,193.500C282.000,210.000,272.434,215.000,260.652,215.000C248.869,215.000,241.000,200.740,241.000,193.000C241.000,183.000,244.348,169.000,260.000,171.000Z" style="fill: rgb(255, 224, 248); fill-opacity: 1;" class="fills"/><path d="M169.000,158.000C196.596,158.000,208.000,184.000,208.000,205.000C208.000,224.000,196.596,258.000,169.000,258.000C141.404,258.000,119.000,235.596,119.000,208.000C119.000,180.404,141.404,158.000,169.000,158.000ZM208.000,205.000" style="fill: rgb(255, 189, 242); fill-opacity: 1;" class="fills"/><path d="M173.000,168.193C183.265,169.504,194.000,181.000,194.000,193.000C194.000,208.000,190.000,216.000,176.000,216.000C163.000,216.000,154.000,202.000,154.000,190.193C154.000,180.193,157.348,166.193,173.000,168.193Z" style="fill: rgb(255, 224, 248); fill-opacity: 1;" class="fills"/></svg>