<svg width="204" xmlns="http://www.w3.org/2000/svg" height="204" fill="none"><rect rx="0" ry="0" transform="matrix(1.000000, 0.000000, 0.000000, 1.000000, 0.000000, 0.000000)" width="204" height="204" class="fills"/><path d="M102.000,6.000C154.984,6.000,198.000,49.016,198.000,102.000C198.000,154.984,154.984,198.000,102.000,198.000C49.016,198.000,6.000,154.984,6.000,102.000C6.000,49.016,49.016,6.000,102.000,6.000Z" style="fill: rgb(255, 171, 158); fill-opacity: 1;" class="fills"/><g class="strokes"><g class="outer-stroke-shape"><defs><mask id="b" x="-8.485" y="-8.485" width="220.971" height="220.971" maskUnits="userSpaceOnUse"><use href="#a" style="fill: none; stroke: white; stroke-width: 12;"/><use href="#a" style="fill: black; stroke: none;"/></mask><path d="M102.000,6.000C154.984,6.000,198.000,49.016,198.000,102.000C198.000,154.984,154.984,198.000,102.000,198.000C49.016,198.000,6.000,154.984,6.000,102.000C6.000,49.016,49.016,6.000,102.000,6.000Z" id="a"/></defs><use href="#a" mask="url(#b)" style="fill: none; stroke-width: 12; stroke: rgb(229, 154, 142); stroke-opacity: 1;"/><use href="#a" style="fill: none; stroke-width: 6; stroke: none; stroke-opacity: 1;"/></g></g><path d="M58.000,48.000C87.000,47.000,94.094,63.672,90.000,78.000C86.000,92.000,76.156,102.000,58.000,102.000C43.098,102.000,31.000,89.902,31.000,75.000C31.000,60.098,43.107,48.514,58.000,48.000Z" style="fill: rgb(229, 154, 142); fill-opacity: 1;" class="fills"/><path d="M144.007,67.709C163.766,46.458,177.000,82.000,176.007,108.754C175.119,132.692,168.000,143.000,146.007,142.709C126.000,142.444,113.000,131.000,114.000,114.000C115.883,81.995,127.000,86.000,144.007,67.709Z" style="fill: rgb(229, 154, 142); fill-opacity: 1;" class="fills"/><path d="M71.000,121.000C104.000,126.000,104.000,139.754,104.000,153.000C104.000,166.246,93.246,177.000,80.000,177.000C66.754,177.000,47.000,148.246,47.000,135.000C47.000,121.754,57.904,119.016,71.000,121.000Z" style="fill: rgb(229, 154, 142); fill-opacity: 1;" class="fills"/></svg>