<svg width="212" xmlns="http://www.w3.org/2000/svg" height="112" fill="none"><ellipse cx="156" cy="56" rx="56" ry="56" transform="matrix(1.000000, 0.000000, 0.000000, 1.000000, 0.000000, 0.000000)" style="fill: rgb(221, 161, 211); fill-opacity: 1;" class="fills"/><ellipse cx="56" cy="56" rx="56" ry="56" transform="matrix(1.000000, 0.000000, 0.000000, 1.000000, 0.000000, 0.000000)" style="fill: rgb(221, 161, 211); fill-opacity: 1;" class="fills"/><path d="M144.000,7.000C171.596,7.000,194.000,29.404,194.000,57.000C194.000,84.596,171.596,107.000,144.000,107.000C116.404,107.000,105.000,72.000,105.000,54.000C105.000,33.000,116.404,7.000,144.000,7.000Z" style="fill: rgb(255, 189, 242); fill-opacity: 1;" class="fills"/><path d="M159.000,20.000C169.265,21.312,181.000,33.000,181.000,42.500C181.000,59.000,171.434,64.000,159.652,64.000C147.869,64.000,140.000,49.740,140.000,42.000C140.000,32.000,143.348,18.000,159.000,20.000Z" style="fill: rgb(255, 224, 248); fill-opacity: 1;" class="fills"/><path d="M68.000,7.000C95.596,7.000,107.000,33.000,107.000,54.000C107.000,73.000,95.596,107.000,68.000,107.000C40.404,107.000,18.000,84.596,18.000,57.000C18.000,29.404,40.404,7.000,68.000,7.000ZM107.000,54.000" style="fill: rgb(255, 189, 242); fill-opacity: 1;" class="fills"/><path d="M72.000,17.193C82.265,18.504,93.000,30.000,93.000,42.000C93.000,57.000,89.000,65.000,75.000,65.000C62.000,65.000,53.000,51.000,53.000,39.193C53.000,29.193,56.348,15.193,72.000,17.193Z" style="fill: rgb(255, 224, 248); fill-opacity: 1;" class="fills"/></svg>