<svg width="340.699" xmlns="http://www.w3.org/2000/svg" height="305.358" fill="none"><path d="M79.850,70.599C181.509,-55.264,299.661,87.621,296.850,180.358C294.850,246.358,229.226,305.358,143.850,305.358C72.850,305.358,40.850,261.358,35.850,192.599C32.968,152.966,58.850,96.599,79.850,70.599Z" style="fill: rgb(182, 201, 255); fill-opacity: 1;" class="fills"/><path d="M183.898,95.034C216.193,55.187,253.727,100.423,252.835,129.783C252.199,150.679,231.352,169.358,204.230,169.358C181.675,169.358,171.509,155.428,169.921,133.659C169.005,121.111,177.227,103.266,183.898,95.034Z" style="fill: rgb(220, 229, 255); fill-opacity: 1;" class="fills"/><path d="M166.850,2.358C208.850,-6.642,263.850,10.358,297.850,49.358C331.926,88.445,357.055,175.067,327.850,206.358C313.850,221.358,280.608,217.881,285.850,190.358C305.850,85.358,218.740,39.684,168.850,36.358C153.850,35.358,151.639,5.617,166.850,2.358Z" style="fill: rgb(151, 147, 211); fill-opacity: 1;" class="fills"/><path d="M44.850,143.358C53.850,158.358,36.850,169.358,39.850,197.358C44.356,239.414,65.850,241.358,52.850,265.358C41.772,285.810,8.850,269.358,0.850,198.358C-6.543,132.743,36.475,129.399,44.850,143.358Z" style="fill: rgb(151, 147, 211); fill-opacity: 1;" class="fills"/></svg>