<svg width="600" xmlns="http://www.w3.org/2000/svg" height="600" fill="none"><rect rx="0" ry="0" transform="matrix(1.000000, 0.000000, 0.000000, 1.000000, 0.000000, 0.000000)" width="600" height="600" class="fills"/><path d="M300.000,12.000C458.952,12.000,588.000,141.048,588.000,300.000C588.000,458.952,458.952,588.000,300.000,588.000C141.048,588.000,12.000,458.952,12.000,300.000C12.000,141.048,141.048,12.000,300.000,12.000Z" style="fill: rgb(168, 163, 235); fill-opacity: 1;" class="fills"/><g class="strokes"><g class="outer-stroke-shape"><defs><mask id="b" x="-16.971" y="-16.971" width="633.941" height="633.941" maskUnits="userSpaceOnUse"><use href="#a" style="fill: none; stroke: white; stroke-width: 24;"/><use href="#a" style="fill: black; stroke: none;"/></mask><path d="M300.000,12.000C458.952,12.000,588.000,141.048,588.000,300.000C588.000,458.952,458.952,588.000,300.000,588.000C141.048,588.000,12.000,458.952,12.000,300.000C12.000,141.048,141.048,12.000,300.000,12.000Z" id="a"/></defs><use href="#a" mask="url(#b)" style="fill: none; stroke-width: 24; stroke: rgb(151, 147, 211); stroke-opacity: 1;"/><use href="#a" style="fill: none; stroke-width: 12; stroke: none; stroke-opacity: 1;"/></g></g></svg>