<svg width="360" xmlns="http://www.w3.org/2000/svg" height="402.451" fill="none"><ellipse cx="115.808" cy="115.468" rx="84.591" ry="84.715" transform="matrix(-0.501103, -0.865388, 0.866661, -0.498898, 73.767851, 273.293065)" style="fill: rgb(229, 133, 165); fill-opacity: 1;" class="fills"/><path d="M59.892,166.828C38.550,139.027,40.026,90.246,87.598,63.732C135.175,37.216,178.934,59.956,190.998,91.357C211.125,143.743,200.723,191.698,177.124,205.283C149.591,221.132,93.826,211.031,59.892,166.828Z" style="fill: rgb(255, 189, 242); fill-opacity: 1;" class="fills"/><path d="M121.072,71.716C133.853,60.555,153.282,66.813,161.993,73.858C173.662,83.296,178.341,95.190,171.900,103.998C164.195,114.534,147.549,113.486,133.698,104.935C123.556,98.674,107.646,83.440,121.072,71.716Z" style="fill: rgb(255, 224, 248); fill-opacity: 1;" class="fills"/><ellipse cx="275.251" cy="181.858" rx="84.749" ry="84.5" transform="matrix(1.000000, 0.000000, 0.000000, 1.000000, 0.000000, 0.000000)" style="fill: rgb(229, 133, 165); fill-opacity: 1;" class="fills"/><path d="M258.909,106.177C294.060,101.593,336.088,127.570,335.324,182.564C334.560,237.563,292.532,264.299,258.909,258.952C202.815,250.031,174.853,217.703,174.853,190.203C174.853,158.120,203.022,113.464,258.909,106.177Z" style="fill: rgb(255, 189, 242); fill-opacity: 1;" class="fills"/><path d="M288.837,123.984C301.344,125.418,315.643,138.193,315.643,148.576C315.643,166.611,303.988,172.075,289.631,172.075C275.274,172.075,265.685,156.490,265.685,148.030C265.685,137.100,269.765,121.798,288.837,123.984Z" style="fill: rgb(255, 224, 248); fill-opacity: 1;" class="fills"/><ellipse cx="136.245" cy="286.984" rx="84.591" ry="84.715" transform="matrix(-0.501103, 0.865388, -0.866661, -0.498898, 453.235123, 312.254275)" style="fill: rgb(229, 133, 165); fill-opacity: 1;" class="fills"/><path d="M208.813,309.585C195.337,341.915,152.228,365.031,105.413,337.210C58.594,309.387,56.466,260.231,77.708,234.114C113.145,190.541,158.823,179.623,182.422,193.208C209.954,209.057,230.240,258.183,208.813,309.585Z" style="fill: rgb(255, 189, 242); fill-opacity: 1;" class="fills"/><path d="M187.000,230.000C191.248,246.321,184.890,258.957,171.000,264.000C156.947,269.102,140.069,258.824,134.193,246.720C127.410,232.748,128.000,222.000,143.000,213.000C162.147,201.512,180.390,204.602,187.000,230.000ZM143.000,213.000" style="fill: rgb(255, 224, 248); fill-opacity: 1;" class="fills"/></svg>