<svg width="788" xmlns="http://www.w3.org/2000/svg" height="788" fill="none"><rect rx="0" ry="0" transform="matrix(1.000000, 0.000000, 0.000000, 1.000000, 0.000000, 0.000000)" width="788" height="788" class="fills"/><path d="M111.047,293.144C123.320,258.410,141.813,226.601,165.184,199.061C158.054,185.264,154.000,169.602,154.000,153.000C154.000,97.808,198.808,53.000,254.000,53.000C289.002,53.000,319.829,71.022,337.698,98.286C355.903,94.819,374.741,93.000,394.000,93.000C413.217,93.000,432.014,94.811,450.230,98.271C468.162,71.028,498.992,53.000,534.000,53.000C589.192,53.000,634.000,97.808,634.000,153.000C634.000,169.585,629.954,185.233,622.795,199.008C646.141,226.538,664.627,258.313,676.906,293.011C730.755,294.580,774.000,338.780,774.000,393.000C774.000,447.193,730.799,491.375,676.986,492.956M676.953,492.856C664.677,527.598,646.179,559.413,622.801,586.958C629.946,600.736,634.000,616.398,634.000,633.000C634.000,688.192,589.192,733.000,534.000,733.000C498.998,733.000,468.171,714.978,450.302,687.714C432.107,691.180,413.265,693.000,394.000,693.000C374.787,693.000,355.994,691.190,337.781,687.731C319.838,714.972,289.008,733.000,254.000,733.000C198.808,733.000,154.000,688.192,154.000,633.000C154.000,616.415,158.046,600.767,165.205,586.992C141.889,559.513,123.382,527.715,111.094,492.989C57.245,491.420,14.000,447.220,14.000,393.000C14.000,338.807,57.201,294.625,111.014,293.044" style="fill: rgb(255, 148, 184); fill-opacity: 1;" class="fills"/><g class="strokes"><g class="outer-stroke-shape"><defs><mask id="b" x="-5.799" y="33.201" width="799.598" height="719.598" maskUnits="userSpaceOnUse"><use href="#a" style="fill: none; stroke: white; stroke-width: 28;"/><use href="#a" style="fill: black; stroke: none;"/></mask><path d="M111.047,293.144C123.320,258.410,141.813,226.601,165.184,199.061C158.054,185.264,154.000,169.602,154.000,153.000C154.000,97.808,198.808,53.000,254.000,53.000C289.002,53.000,319.829,71.022,337.698,98.286C355.903,94.819,374.741,93.000,394.000,93.000C413.217,93.000,432.014,94.811,450.230,98.271C468.162,71.028,498.992,53.000,534.000,53.000C589.192,53.000,634.000,97.808,634.000,153.000C634.000,169.585,629.954,185.233,622.795,199.008C646.141,226.538,664.627,258.313,676.906,293.011C730.755,294.580,774.000,338.780,774.000,393.000C774.000,447.193,730.799,491.375,676.986,492.956M676.953,492.856C664.677,527.598,646.179,559.413,622.801,586.958C629.946,600.736,634.000,616.398,634.000,633.000C634.000,688.192,589.192,733.000,534.000,733.000C498.998,733.000,468.171,714.978,450.302,687.714C432.107,691.180,413.265,693.000,394.000,693.000C374.787,693.000,355.994,691.190,337.781,687.731C319.838,714.972,289.008,733.000,254.000,733.000C198.808,733.000,154.000,688.192,154.000,633.000C154.000,616.415,158.046,600.767,165.205,586.992C141.889,559.513,123.382,527.715,111.094,492.989C57.245,491.420,14.000,447.220,14.000,393.000C14.000,338.807,57.201,294.625,111.014,293.044" id="a"/></defs><use href="#a" mask="url(#b)" style="fill: none; stroke-width: 28; stroke: rgb(229, 133, 165); stroke-opacity: 1;"/><use href="#a" style="fill: none; stroke-width: 14; stroke: none; stroke-opacity: 1;"/></g></g></svg>